<svg width="30" height="30" viewBox="0 0 30 30" fill="none" xmlns="http://www.w3.org/2000/svg">
<path d="M15 28.125C14.7292 28.125 14.4688 28.0833 14.2188 28C13.9688 27.9167 13.7292 27.7917 13.5 27.625L6 22C5.6875 21.7708 5.44271 21.4792 5.26562 21.125C5.08854 20.7708 5 20.3958 5 20V5C5 4.3125 5.24479 3.72396 5.73438 3.23438C6.22396 2.74479 6.8125 2.5 7.5 2.5H22.5C23.1875 2.5 23.776 2.74479 24.2656 3.23438C24.7552 3.72396 25 4.3125 25 5V20C25 20.3958 24.9115 20.7708 24.7344 21.125C24.5573 21.4792 24.3125 21.7708 24 22L16.5 27.625C16.2708 27.7917 16.0312 27.9167 15.7812 28C15.5312 28.0833 15.2708 28.125 15 28.125ZM13.6875 15.1875L11.9375 13.4375C11.6875 13.1875 11.3958 13.0677 11.0625 13.0781C10.7292 13.0885 10.4375 13.2083 10.1875 13.4375C9.9375 13.6875 9.80729 13.9844 9.79688 14.3281C9.78646 14.6719 9.90625 14.9688 10.1562 15.2188L12.8125 17.875C13.0625 18.125 13.3542 18.25 13.6875 18.25C14.0208 18.25 14.3125 18.125 14.5625 17.875L19.875 12.5625C20.125 12.3125 20.2448 12.0208 20.2344 11.6875C20.224 11.3542 20.1042 11.0625 19.875 10.8125C19.625 10.5625 19.3281 10.4323 18.9844 10.4219C18.6406 10.4115 18.3438 10.5312 18.0938 10.7812L13.6875 15.1875Z" fill="#E2AB2E"/>
</svg>
