<svg width="188" height="40" viewBox="0 0 188 40" fill="none" xmlns="http://www.w3.org/2000/svg">
<g clip-path="url(#clip0_22_127)">
<path d="M10.7191 1.48535e-07C11.0315 0.381627 11.3161 0.767303 11.6127 1.14408C12.3375 2.06475 13.0675 2.98153 13.7965 3.89905C13.85 3.96638 13.9124 4.02707 13.9782 4.09901C14.0888 4.01327 14.1894 3.93116 14.2944 3.85469C14.958 3.37126 15.5874 3.35147 16.2695 3.82101C16.5962 4.04592 16.8927 4.31193 17.2052 4.55652C18.5431 5.60371 19.8819 6.64984 21.2204 7.6964C21.5401 7.94638 21.8597 8.19651 22.2158 8.47515C19.7501 10.3167 17.3134 12.1366 14.858 13.9704C14.8088 13.8998 14.7571 13.8451 14.7279 13.7808C13.7612 11.652 12.809 9.51678 11.8231 7.39632C11.5768 6.86663 11.4979 6.35895 11.7688 5.84729C12.0201 5.37254 11.9247 5.01199 11.5636 4.63285C11.1938 4.2445 10.8824 3.80382 10.5448 3.38658C10.5046 3.33689 10.4599 3.29058 10.4015 3.22496C10.2172 3.38302 10.0395 3.52627 9.87234 3.68021C8.90829 4.56792 7.94483 5.45625 6.98484 6.34808C6.073 7.19518 5.16552 8.04668 4.25645 8.89656C3.88643 9.24248 3.53649 9.61169 3.14221 9.92924C2.75884 10.238 2.71453 10.6252 2.77383 11.0447C2.80829 11.2885 2.87776 11.5353 2.97782 11.7615C4.36804 14.9041 5.75985 18.046 7.16611 21.1819C7.65087 22.2628 8.16535 23.3299 8.55073 24.4513C8.99111 25.7326 9.15859 27.0416 9.04912 28.3847C9.02553 28.6742 8.96788 28.9611 8.92073 29.2848C10.8161 29.2848 12.6999 29.2848 14.605 29.2848C14.605 30.2668 14.605 31.2141 14.605 32.1813C10.1447 32.1813 5.69566 32.1813 1.24756 32.1813C1.17985 31.9488 1.15649 29.9644 1.21774 29.3656C3.17673 29.3656 5.14006 29.3656 7.11919 29.3656C7.04476 28.8365 6.98294 28.3444 6.90496 27.8548C6.78609 27.1084 6.67131 26.3609 6.52662 25.6191C6.36786 24.8051 5.99375 24.0596 5.66202 23.3052C4.32732 20.2699 2.97676 17.2412 1.62726 14.212C1.2202 13.2984 0.790382 12.3942 0.386101 11.4794C0.246649 11.1638 0.153076 10.8292 0.0166453 10.4917C-0.00525535 10.4312 -0.00525535 10.3824 0.0149387 10.2951C0.12215 9.75198 0.412962 9.36658 0.790477 9.02861C1.58617 8.31627 2.38183 7.60386 3.17203 6.88582C4.33742 5.82685 5.50052 4.76549 6.6597 3.70015C7.30855 3.10383 7.94589 2.49576 8.59166 1.89628C8.91427 1.59678 9.24907 1.30954 9.56947 1.0079C9.92068 0.677258 10.2617 0.336405 10.6071 1.66194e-08C10.637 -1.59273e-08 10.6668 -1.41986e-08 10.7191 1.48535e-07Z" fill="#BAB8BB"/>
<path d="M188.067 26.3975C188.024 26.6685 187.993 26.9116 187.936 27.1492C187.43 29.2786 186.202 30.8777 184.182 31.8692C183.317 32.2935 182.389 32.5056 181.412 32.5571C179.794 32.6424 178.317 32.2722 176.99 31.3682C176.748 31.2033 176.531 31.0034 176.255 30.7815C176.255 32.7526 176.255 34.6739 176.255 36.611C175.327 36.611 174.437 36.611 173.525 36.611C173.525 30.6072 173.525 24.617 173.525 18.6072C174.423 18.6072 175.314 18.6072 176.246 18.6072C176.246 19.0969 176.246 19.5863 176.246 20.1237C178.455 18.2787 180.922 17.8201 183.561 18.7971C186.219 19.7814 187.696 21.7507 188.047 24.5223C188.067 25.1492 188.067 25.7581 188.067 26.3975ZM181.325 29.946C181.913 29.9035 182.469 29.741 182.981 29.4661C184.32 28.7482 185.12 27.6519 185.331 26.1816C185.562 24.575 185.093 23.1857 183.861 22.0658C181.977 20.3517 178.867 20.6235 177.27 22.5618C176.449 23.5584 176.163 24.7043 176.299 25.9685C176.497 27.8105 177.777 29.3105 179.613 29.8063C180.153 29.9519 180.701 30.0485 181.325 29.946Z" fill="#BAB8BB"/>
<path d="M22.9935 40.0976C22.8962 40.006 22.8296 39.9065 22.7451 39.8242C22.3038 39.3944 21.8579 38.9689 21.443 38.5702C21.996 38.034 22.5301 37.5163 23.0332 37.0285C23.5244 37.5049 24.0646 38.0289 24.6165 38.5643C24.1434 39.033 23.6282 39.5434 23.1092 40.0757C23.0756 40.0976 23.0457 40.0976 22.9935 40.0976Z" fill="#BAB8BB"/>
<path d="M156.169 18.4211C157.141 18.5959 157.989 18.9677 158.694 19.6032C158.986 19.8662 159.228 20.1814 159.489 20.4756C159.547 20.54 159.591 20.6157 159.662 20.7157C159.718 20.6455 159.766 20.5944 159.805 20.5376C160.616 19.3429 161.788 18.6846 163.211 18.4344C164.324 18.2385 165.435 18.2766 166.52 18.6341C167.984 19.1167 168.991 20.0734 169.593 21.4394C169.974 22.3055 170.143 23.2169 170.144 24.1568C170.146 26.7381 170.145 29.3195 170.145 31.9008C170.145 32.0178 170.145 32.1349 170.145 32.2706C169.22 32.2706 168.321 32.2706 167.39 32.2706C167.39 32.1374 167.39 32.0207 167.39 31.9039C167.39 29.366 167.395 26.8281 167.388 24.2902C167.385 23.4451 167.15 22.6651 166.596 21.9958C166.085 21.3806 165.403 21.0501 164.609 20.9744C163.891 20.9061 163.185 20.9868 162.52 21.3077C161.747 21.6809 161.246 22.2797 160.937 23.0411C160.701 23.6207 160.607 24.2289 160.607 24.851C160.607 27.2045 160.607 29.5581 160.607 31.9116C160.607 32.0279 160.607 32.1442 160.607 32.2743C159.681 32.2743 158.79 32.2743 157.853 32.2743C157.853 32.1555 157.853 32.0406 157.853 31.9256C157.853 29.3551 157.859 26.7846 157.849 24.2142C157.846 23.3689 157.594 22.5948 157.027 21.9318C156.619 21.4542 156.097 21.1433 155.478 21.0343C154.303 20.8275 153.208 21.0219 152.275 21.7918C151.682 22.281 151.354 22.9295 151.202 23.656C151.123 24.0348 151.077 24.4265 151.075 24.8126C151.064 27.1769 151.069 29.5414 151.069 31.9058C151.069 32.0226 151.069 32.1395 151.069 32.2723C150.148 32.2723 149.257 32.2723 148.34 32.2723C148.34 27.7256 148.34 23.1773 148.34 18.6083C149.242 18.6083 150.142 18.6083 151.063 18.6083C151.063 18.9892 151.063 19.3552 151.063 19.7758C152.556 18.508 154.259 18.1404 156.169 18.4211Z" fill="#BAB8BB"/>
<path d="M64.6578 22.2411C65.7218 19.6724 67.646 18.1991 70.453 17.8376C72.1184 17.623 73.6745 17.9537 75.1054 18.8134C75.257 18.9045 75.4006 19.0089 75.5432 19.1131C75.6853 19.2169 75.8215 19.3282 75.9559 19.4329C75.9771 19.4236 75.988 19.4205 75.9967 19.4145C76.0046 19.4089 76.0159 19.4002 76.0159 19.3929C76.0229 16.5736 76.0291 13.7543 76.036 10.9351C76.036 10.9264 76.0467 10.9178 76.0651 10.8899C76.9748 10.8899 77.8975 10.8899 78.842 10.8899C78.842 17.8629 78.842 24.8288 78.842 31.8128C77.9092 31.8128 76.9865 31.8128 76.0286 31.8128C76.0286 31.3563 76.0286 30.909 76.0286 30.4058C75.7895 30.5887 75.6057 30.7409 75.4099 30.877C74.3685 31.601 73.2097 31.9966 71.9285 32.0981C70.5776 32.2052 69.3023 31.9728 68.1039 31.3766C66.3128 30.4857 65.1461 29.0772 64.5293 27.2298C64.3393 26.6608 64.2459 26.0771 64.1955 25.4802C64.1021 24.3726 64.2733 23.3068 64.6578 22.2411ZM74.9935 22.0681C74.2424 21.2009 73.2842 20.6779 72.132 20.5275C70.5313 20.3185 69.1622 20.7961 68.1118 21.9887C67.1398 23.0924 66.8409 24.3955 67.1095 25.8165C67.2876 26.7588 67.7241 27.5826 68.4446 28.2403C69.5027 29.206 70.7649 29.5746 72.2057 29.3707C74.272 29.0783 75.8396 27.5077 76.0151 25.3543C76.1123 24.1622 75.8131 23.0556 74.9935 22.0681Z" fill="#E2AB2E"/>
<path d="M21.9741 34.4002L14.9981 14.1772L22.3228 8.69199L41.0996 20.0002L38.8033 27.8481L21.9741 34.4002Z" fill="url(#paint0_linear_22_127)"/>
<path d="M142.062 18.6501C142.093 18.6131 142.113 18.5957 142.134 18.5956C142.984 18.5938 143.834 18.5932 144.684 18.5945C144.715 18.5946 144.746 18.615 144.787 18.6293C144.787 23.1696 144.787 27.7096 144.787 32.2696C143.874 32.2696 142.976 32.2696 142.052 32.2696C142.052 31.7839 142.052 31.3118 142.052 30.7924C141.979 30.8348 141.941 30.8488 141.914 30.8739C140.999 31.7235 139.9 32.2282 138.667 32.4536C137.311 32.7013 135.979 32.5988 134.691 32.0999C132.807 31.3701 131.496 30.0781 130.728 28.2657C130.442 27.592 130.291 26.8871 130.22 26.1594C130.08 24.723 130.309 23.3534 130.981 22.0673C131.933 20.2454 133.443 19.0648 135.48 18.5511C137.099 18.1425 138.691 18.2683 140.23 18.9237C140.839 19.1831 141.38 19.5439 141.875 19.9728C141.914 20.0068 141.956 20.0378 142.051 20.1133C142.051 19.5975 142.051 19.1377 142.062 18.6501ZM133.685 22.9072C133.055 23.88 132.825 24.9361 132.981 26.0734C133.124 27.1076 133.56 28.0157 134.335 28.7318C135.496 29.8049 136.892 30.2154 138.469 29.8652C140.091 29.5052 141.213 28.5499 141.777 27.0262C142.023 26.3613 142.093 25.6675 142.008 24.9528C141.88 23.879 141.458 22.9416 140.662 22.1947C139.663 21.2574 138.44 20.8334 137.052 20.9506C135.633 21.0705 134.518 21.726 133.685 22.9072Z" fill="#BAB8BB"/>
<path d="M59.6989 19.1497C61.3034 20.3146 62.1976 21.8613 62.4699 23.747C62.6403 24.927 62.5834 26.0997 62.2033 27.244C61.8985 28.1616 61.4349 28.9958 60.7777 29.7224C59.5525 31.0769 58.0001 31.845 56.1673 32.0633C54.1059 32.3088 52.2138 31.8688 50.5584 30.6221C49.1601 29.569 48.3175 28.1702 47.9674 26.4997C47.6756 25.1068 47.7358 23.7181 48.2289 22.3731C49.0374 20.1683 50.6183 18.7225 52.937 18.0809C54.9495 17.524 56.9162 17.6933 58.796 18.6096C59.1037 18.7596 59.3855 18.9594 59.6989 19.1497ZM52.1055 28.2969C52.2601 28.4213 52.4042 28.5609 52.5708 28.6675C53.8721 29.5002 55.2745 29.6397 56.7363 29.1714C57.9725 28.7754 58.8244 27.9546 59.3301 26.7973C59.7144 25.9178 59.801 25.0004 59.6363 24.0649C59.4556 23.0384 58.981 22.1581 58.1436 21.4902C56.9251 20.5185 55.5222 20.2794 54.0145 20.615C52.6032 20.9291 51.6106 21.763 51.0336 23.0498C50.6303 23.9492 50.5549 24.8897 50.7412 25.8457C50.9237 26.7822 51.3347 27.6102 52.1055 28.2969Z" fill="#E2AB2E"/>
<path d="M90.1275 31.7597C89.3572 32.0213 88.5887 32.1519 87.7999 32.1303C86.3206 32.0897 84.9842 31.6649 83.8942 30.6603C83.1564 29.9802 82.6933 29.1327 82.4161 28.1884C82.232 27.5612 82.1379 26.9193 82.1369 26.268C82.1328 23.6433 82.1352 21.0186 82.1352 18.3939C82.1352 18.2974 82.1352 18.2009 82.1352 18.1108C82.3963 18.0429 84.4816 18.0263 84.962 18.0872C84.9664 18.2051 84.9753 18.3306 84.9753 18.4561C84.9761 20.9615 84.9651 23.467 84.982 25.9723C84.9877 26.8183 85.1893 27.6234 85.7537 28.3076C86.287 28.9541 86.9849 29.2904 87.8284 29.3567C88.5185 29.4111 89.1882 29.3252 89.829 29.0645C90.9995 28.5881 91.6577 27.7161 91.8789 26.5246C91.9378 26.2073 91.9566 25.8793 91.9575 25.5562C91.9638 23.1918 91.9609 20.8273 91.9609 18.4629C91.9609 18.3448 91.9609 18.2266 91.9609 18.1154C92.2265 18.0411 94.4301 18.0285 94.8068 18.0968C94.8068 22.6531 94.8068 27.2138 94.8068 31.7769C94.5803 31.8466 92.7942 31.8728 91.9686 31.812C91.9686 31.4808 91.9686 31.1432 91.9686 30.7276C91.3715 31.1928 90.7901 31.5219 90.1275 31.7597Z" fill="#E2AB2E"/>
<path d="M103.742 20.5881C102.855 20.7879 102.101 21.1692 101.483 21.7827C100.814 22.4456 100.42 23.2419 100.269 24.1568C100.124 25.0324 100.199 25.8851 100.551 26.704C101.127 28.046 102.153 28.9086 103.606 29.2464C104.951 29.5588 106.252 29.4191 107.447 28.6978C107.71 28.5388 107.939 28.3262 108.183 28.1369C108.251 28.0836 108.316 28.0253 108.414 27.9427C109.051 28.5583 109.633 29.2062 110.242 29.8433C109.754 30.3897 109.192 30.8139 108.567 31.1588C107.406 31.8004 106.152 32.0924 104.816 32.0949C103.372 32.0975 102.023 31.767 100.792 31.04C99.1506 30.0706 98.1029 28.6639 97.6008 26.8676C97.4333 26.2682 97.3428 25.6535 97.3444 25.0412C97.3493 23.2073 97.8829 21.5397 99.1668 20.1502C100.43 18.7834 102.021 18.0366 103.898 17.8319C105.672 17.6384 107.318 17.982 108.838 18.8861C109.354 19.1929 109.808 19.5751 110.255 20.0198C109.648 20.6717 109.053 21.3115 108.442 21.9678C108.301 21.8571 108.168 21.7631 108.047 21.6556C107.041 20.7604 105.842 20.4167 104.5 20.4908C104.255 20.5042 104.013 20.5498 103.742 20.5881Z" fill="#E2AB2E"/>
<path d="M110.816 19.2027C110.816 18.8133 110.816 18.4564 110.816 18.0628C111.607 18.0628 112.374 18.0628 113.176 18.0628C113.176 16.3503 113.176 14.6744 113.176 12.9762C114.132 12.9762 115.053 12.9762 116.01 12.9762C116.01 14.6639 116.01 16.3396 116.01 18.059C117.023 18.059 118.001 18.059 118.994 18.059C118.994 18.9119 118.994 19.7206 118.994 20.5651C118.002 20.5651 117.024 20.5651 116.017 20.5651C116.017 24.3282 116.017 28.0558 116.017 31.8071C115.067 31.8071 114.146 31.8071 113.196 31.8071C113.196 28.0725 113.196 24.3449 113.196 20.5846C112.402 20.5846 111.635 20.5846 110.829 20.5846C110.824 20.3311 110.818 20.1086 110.816 19.8861C110.814 19.6692 110.816 19.4522 110.816 19.2027Z" fill="#E2AB2E"/>
<path d="M38.8775 18.8677C38.8775 18.6094 38.8775 18.3511 38.8775 18.0744C39.835 18.0744 40.7579 18.0744 41.7071 18.0744C41.7071 18.5075 41.7071 18.9262 41.7071 19.4328C42.1623 19.0008 42.5402 18.5987 43.0389 18.335C43.5457 18.0669 44.0767 17.8949 44.6482 17.8176C45.2193 17.7403 45.7841 17.7808 46.3488 17.8562C46.9173 17.9322 47.4581 18.0902 47.9703 18.406C47.7976 19.2716 47.6248 20.1381 47.4488 21.0204C47.2291 21.0125 47.0587 20.9069 46.8793 20.8357C46.3463 20.624 45.7966 20.4954 45.2177 20.505C44.3238 20.5199 43.601 20.8726 43.0414 21.5458C42.6423 22.0258 42.3773 22.5755 42.2006 23.16C41.9236 24.0767 41.7719 25.0144 41.7666 25.9735C41.7561 27.837 41.7364 29.7003 41.7199 31.5638C41.7192 31.6383 41.7123 31.7128 41.7072 31.8089C40.7754 31.8089 39.8528 31.8089 38.8866 31.8089C38.8828 31.2528 38.879 30.694 38.8764 30.0754C38.8737 29.5554 38.8698 29.0954 38.8725 28.6059C38.8741 27.8608 38.8692 27.1451 38.8709 26.3994C38.8734 25.7608 38.8693 25.152 38.872 24.5132C38.8748 23.7439 38.8707 23.0045 38.8731 22.235C38.876 21.5525 38.8726 20.9 38.8749 20.2173C38.8796 19.7473 38.8785 19.3075 38.8775 18.8677Z" fill="#E2AB2E"/>
<path d="M124.807 17.6404C124.807 15.5499 124.807 13.4919 124.807 11.4141C125.725 11.4141 126.615 11.4141 127.507 11.4141C127.584 11.6642 127.624 31.0404 127.548 32.2403C127.317 32.3007 125.348 32.32 124.807 32.2621C124.807 27.4022 124.807 22.5376 124.807 17.6404Z" fill="#BAB8BB"/>
<path d="M175.208 39.6772C175.096 39.7826 175 39.8719 174.928 39.9398C174.427 39.4561 173.941 38.986 173.475 38.5357C173.935 38.0898 174.415 37.6247 174.861 37.1929C175.312 37.6302 175.797 38.101 176.315 38.6034C175.993 38.9163 175.608 39.2886 175.208 39.6772Z" fill="#E2AB2E"/>
<path d="M34.3161 30.0706C33.9001 30.3957 33.5087 30.7577 33.0629 31.0383C32.0643 31.6668 30.9612 32.0074 29.7656 32.0991C28.4048 32.2034 27.1165 31.9825 25.9145 31.3674C25.4155 31.112 24.9639 30.7697 24.4805 30.4603C24.429 30.7357 24.467 31.0441 24.4601 31.3496C24.453 31.6637 24.4585 31.9781 24.4585 32.2923C24.4585 32.6174 24.4585 32.9425 24.4585 33.2676C24.4585 33.5818 24.4585 33.8961 24.4585 34.2103C24.4585 34.5246 24.4585 34.8389 24.4585 35.1531C24.4585 35.4651 24.4585 35.7771 24.4585 36.1077C23.5074 36.1077 22.5853 36.1077 21.6217 36.1077C21.6186 33.4847 21.6156 30.8671 21.6149 28.1895C21.6134 27.2378 21.6095 26.3461 21.6124 25.4243C21.6158 24.8499 21.6123 24.3054 21.6148 23.7309C21.6173 23.0917 21.6139 22.4827 21.616 21.8435C21.6188 21.226 21.6161 20.6388 21.6183 20.0212C21.6211 19.4251 21.6192 18.8593 21.6217 18.2661C21.6408 18.0537 21.7866 18.0914 21.9026 18.0911C22.6637 18.0891 23.4249 18.0894 24.186 18.0911C24.2612 18.0913 24.3363 18.1056 24.4583 18.1181C24.4583 18.5878 24.4583 19.044 24.4583 19.5074C24.5286 19.4946 24.5536 19.4965 24.5698 19.4859C24.6065 19.4616 24.6398 19.4322 24.6727 19.403C25.387 18.7714 26.2119 18.3344 27.1423 18.0817C27.9734 17.8559 28.8116 17.7427 29.6807 17.8209C30.1376 17.862 30.5903 17.9075 31.0313 18.0235C31.4069 18.1223 31.7742 18.2503 32.1624 18.3826C32.206 18.4199 32.2295 18.446 32.2592 18.4591C32.9663 18.7714 33.5998 19.188 34.1481 19.722C34.3679 19.9361 34.5746 20.1628 34.7973 20.4032C35.1532 20.9138 35.4932 21.4077 35.718 21.9663C35.7783 22.116 35.8538 22.2598 35.9249 22.4312C36.1489 23.1353 36.2536 23.8362 36.3359 24.5709C36.3583 25.2146 36.2885 25.8219 36.202 26.453C36.0594 26.9368 35.9244 27.3963 35.7725 27.8711C35.6569 28.0901 35.5622 28.2957 35.4589 28.4971C35.161 29.0779 34.7377 29.5738 34.3161 30.0706ZM32.5777 27.7129C32.9829 27.2175 33.2476 26.6596 33.3902 25.9885C33.5413 25.3521 33.5711 24.7151 33.3954 24.0244C33.3615 23.8773 33.3299 23.7295 33.2932 23.583C33.1837 23.1457 32.9264 22.7772 32.6876 22.3528C31.5251 20.7684 29.8626 20.2297 27.9937 20.5829C26.8322 20.8023 25.8918 21.3997 25.2093 22.4134C24.886 22.9287 24.6268 23.4672 24.5374 24.1214C24.5233 24.2706 24.5162 24.4209 24.4938 24.569C24.4141 25.0959 24.4943 25.6074 24.643 26.1639C24.7857 26.7458 25.0246 27.2821 25.454 27.7775C25.6593 27.9911 25.8405 28.2343 26.074 28.4133C27.0492 29.1606 28.1656 29.5123 29.4091 29.4163C29.9414 29.3752 30.4597 29.2597 30.9372 28.9889C31.2892 28.7891 31.6271 28.5822 31.9453 28.3317C32.1723 28.1529 32.3878 27.9778 32.5777 27.7129Z" fill="#E2AB2E"/>
</g>
<defs>
<linearGradient id="paint0_linear_22_127" x1="27.2641" y1="-3.19981" x2="28.2716" y2="22.8819" gradientUnits="userSpaceOnUse">
<stop stop-color="#E2AB2F"/>
<stop offset="1" stop-color="#737373" stop-opacity="0.05"/>
</linearGradient>
<clipPath id="clip0_22_127">
<rect width="188" height="40" fill="white"/>
</clipPath>
</defs>
</svg>
