<svg width="117" height="40" viewBox="0 0 117 40" fill="none" xmlns="http://www.w3.org/2000/svg">
<g clip-path="url(#clip0_1_156)">
<path d="M17.5622 2.56567C7.89726 2.56567 0.0618896 10.4008 0.0618896 20.0658C0.0618896 29.7311 7.89726 37.5657 17.5622 37.5657C27.2282 37.5657 35.0628 29.7311 35.0628 20.0658C35.0628 10.4015 27.2282 2.56651 17.562 2.56651L17.5622 2.56567ZM25.5878 27.8058C25.2743 28.3199 24.6014 28.4829 24.0873 28.1674C19.9784 25.6576 14.8058 25.0892 8.71415 26.4809C8.12713 26.6147 7.542 26.2469 7.40825 25.6597C7.27388 25.0724 7.64022 24.4873 8.2287 24.3536C14.8951 22.8305 20.6133 23.4863 25.2262 26.3054C25.7403 26.621 25.9033 27.2918 25.5878 27.8058ZM27.7298 23.0408C27.3348 23.6827 26.4947 23.8854 25.8532 23.4905C21.1491 20.5991 13.9785 19.7617 8.41448 21.4507C7.69288 21.6686 6.93074 21.262 6.71173 20.5416C6.4944 19.82 6.90128 19.0593 7.62162 18.8399C13.9772 16.9115 21.8784 17.8456 27.2805 21.1652C27.922 21.5602 28.1247 22.4003 27.7298 23.041V23.0408ZM27.9137 18.0788C22.2734 14.7287 12.9677 14.4207 7.58254 16.0551C6.7178 16.3174 5.80331 15.8292 5.54126 14.9645C5.2792 14.0993 5.76695 13.1854 6.63232 12.9225C12.8141 11.0459 23.0905 11.4085 29.5842 15.2635C30.3637 15.7251 30.6187 16.7297 30.1568 17.5064C29.6971 18.2843 28.6898 18.5407 27.9145 18.0788H27.9137ZM47.6745 18.7208C44.6527 18.0003 44.1156 17.4945 44.1156 16.4319C44.1156 15.428 45.0602 14.7523 46.4666 14.7523C47.8291 14.7523 49.1791 15.2654 50.596 16.3215C50.6378 16.3535 50.6921 16.3663 50.7444 16.3579C50.7987 16.35 50.8447 16.3209 50.876 16.2772L52.3514 14.1975C52.412 14.1118 52.3953 13.9938 52.3138 13.9283C50.6273 12.5756 48.7298 11.918 46.5105 11.918C43.2484 11.918 40.9684 13.8759 40.9684 16.6772C40.9684 19.6813 42.9349 20.745 46.3329 21.566C49.223 22.232 49.712 22.79 49.712 23.7872C49.712 24.8927 48.7256 25.5802 47.1374 25.5802C45.3737 25.5802 43.9338 24.9847 42.3247 23.5929C42.285 23.5574 42.2307 23.5427 42.1805 23.5448C42.1262 23.549 42.0781 23.5741 42.0447 23.6138L40.3896 25.5823C40.3206 25.6659 40.329 25.7871 40.4084 25.8582C42.2808 27.53 44.5837 28.4119 47.0705 28.4119C50.5855 28.4119 52.8571 26.4914 52.8571 23.5177C52.8634 21.0085 51.3608 19.6188 47.6808 18.7235L47.6745 18.7208ZM60.8108 15.7408C59.2873 15.7408 58.0376 16.341 57.0053 17.5708V16.1865C57.0053 16.0773 56.9175 15.9882 56.8089 15.9882H54.1026C53.9939 15.9882 53.9062 16.0773 53.9062 16.1865V31.5674C53.9062 31.6761 53.9939 31.766 54.1026 31.766H56.8089C56.9175 31.766 57.0053 31.6761 57.0053 31.5674V26.7129C58.0376 27.8685 59.2873 28.4349 60.8108 28.4349C63.6424 28.4349 66.5096 26.2552 66.5096 22.0885C66.5137 17.9208 63.6466 15.7406 60.8129 15.7406L60.8108 15.7408ZM63.3624 22.0885C63.3624 24.2094 62.0563 25.691 60.1838 25.691C58.3344 25.691 56.9384 24.1425 56.9384 22.0885C56.9384 20.0342 58.3344 18.4861 60.1838 18.4861C62.0249 18.4859 63.3624 20.0006 63.3624 22.0883V22.0885ZM73.8551 15.7408C70.2084 15.7408 67.3517 18.5486 67.3517 22.1338C67.3517 25.6806 70.1896 28.4579 73.8112 28.4579C77.4704 28.4579 80.3354 25.6597 80.3354 22.0885C80.3354 18.5294 77.4892 15.7412 73.8551 15.7412V15.7408ZM73.8551 25.7119C71.9158 25.7119 70.4529 24.1529 70.4529 22.0874C70.4529 20.0125 71.8656 18.5068 73.8112 18.5068C75.763 18.5068 77.2342 20.0652 77.2342 22.1328C77.2342 24.2073 75.8132 25.7119 73.8551 25.7119ZM88.1219 15.9882H85.144V12.9443C85.144 12.8352 85.0562 12.7462 84.9476 12.7462H82.2413C82.1327 12.7462 82.0428 12.8352 82.0428 12.9443V15.9882H80.743C80.6343 15.9882 80.5465 16.0773 80.5465 16.1865V18.5118C80.5465 18.6209 80.6343 18.7101 80.743 18.7101H82.0428V24.7276C82.0428 27.158 83.2528 28.391 85.6414 28.391C86.611 28.391 87.4156 28.1904 88.1742 27.7599C88.2369 27.7264 88.2745 27.6596 88.2745 27.5885V25.3734C88.2745 25.3065 88.2389 25.2417 88.1804 25.2062C88.1219 25.1686 88.0488 25.1665 87.9882 25.1978C87.4678 25.459 86.9642 25.5802 86.3999 25.5802C85.5327 25.5802 85.144 25.1853 85.144 24.3034V18.7112H88.1219C88.2306 18.7112 88.3184 18.6222 88.3184 18.5129V16.1878C88.3225 16.0785 88.2348 15.9895 88.124 15.9895L88.1219 15.9882ZM98.4955 16.0001V15.6263C98.4955 14.5264 98.9177 14.036 99.8622 14.036C100.426 14.036 100.88 14.148 101.388 14.3173C101.45 14.3369 101.515 14.3271 101.565 14.2897C101.618 14.2523 101.647 14.1923 101.647 14.1288V11.8488C101.647 11.7617 101.593 11.6846 101.507 11.6589C100.972 11.4994 100.286 11.3358 99.2583 11.3358C96.761 11.3358 95.4382 12.743 95.4382 15.4039V15.9765H94.1384C94.0297 15.9765 93.9398 16.0656 93.9398 16.1746V18.5118C93.9398 18.6209 94.0297 18.7101 94.1384 18.7101H95.4382V27.9897C95.4382 28.1005 95.5281 28.1883 95.6367 28.1883H98.3409C98.4516 28.1883 98.5394 28.1005 98.5394 27.9897V18.7108H101.066L104.936 27.9897C104.497 28.9636 104.065 29.1579 103.475 29.1579C102.999 29.1579 102.495 29.0158 101.983 28.7337C101.935 28.7086 101.877 28.7044 101.827 28.7191C101.774 28.7379 101.73 28.7755 101.71 28.8257L100.792 30.8381C100.748 30.9342 100.786 31.045 100.878 31.0951C101.835 31.6134 102.698 31.8349 103.766 31.8349C105.764 31.8349 106.869 30.9029 107.841 28.3993L112.535 16.271C112.56 16.21 112.551 16.141 112.514 16.0869C112.478 16.0332 112.418 16.0008 112.353 16.0008H109.536C109.45 16.0008 109.375 16.0545 109.348 16.1337L106.462 24.3745L103.302 16.1282C103.273 16.0515 103.2 16.0008 103.118 16.0008H98.4955V16.0001ZM92.4812 15.9882H89.7749C89.6663 15.9882 89.5764 16.0773 89.5764 16.1865V27.9897C89.5764 28.1005 89.6663 28.1883 89.7749 28.1883H92.4812C92.5898 28.1883 92.6797 28.1005 92.6797 27.9897V16.1874C92.6797 16.0781 92.5919 15.9891 92.4812 15.9891V15.9882ZM91.1437 10.6136C90.0717 10.6136 89.2023 11.4812 89.2023 12.5531C89.2023 13.6255 90.0717 14.4943 91.1437 14.4943C92.2158 14.4943 93.083 13.6255 93.083 12.5531C93.083 11.4814 92.2137 10.6136 91.1437 10.6136ZM114.846 19.7835C113.776 19.7835 112.942 18.9235 112.942 17.8793C112.942 16.835 113.786 15.9652 114.856 15.9652C115.926 15.9652 116.76 16.825 116.76 17.8684C116.76 18.9126 115.916 19.7835 114.846 19.7835ZM114.856 16.1546C113.88 16.1546 113.143 16.9299 113.143 17.8793C113.143 18.8282 113.876 19.5931 114.846 19.5931C115.822 19.5931 116.559 18.8184 116.559 17.8684C116.559 16.9194 115.826 16.1546 114.856 16.1546ZM115.278 18.0642L115.818 18.8182H115.362L114.877 18.1265H114.461V18.8182H114.081V16.8195H114.971C115.437 16.8195 115.742 17.0571 115.742 17.4571C115.744 17.7848 115.554 17.985 115.281 18.0642H115.278ZM114.957 17.1625H114.461V17.7946H114.957C115.203 17.7946 115.352 17.6736 115.352 17.4782C115.352 17.2726 115.203 17.1625 114.957 17.1625Z" fill="#404040"/>
</g>
<defs>
<clipPath id="clip0_1_156">
<rect width="116.667" height="40" fill="white"/>
</clipPath>
</defs>
</svg>
